<?xml version="1.0" encoding="iso-8859-1"?>
<!-- Generator: Adobe Illustrator 19.0.0, SVG Export Plug-In . SVG Version: 6.00 Build 0)  -->
<svg version="1.1" id="Layer_1" xmlns="http://www.w3.org/2000/svg" xmlns:xlink="http://www.w3.org/1999/xlink" x="0px" y="0px"
	 viewBox="0 0 511.999 511.999" style="enable-background:new 0 0 511.999 511.999;" xml:space="preserve">
<g>
	<g>
		<path d="M425.667,54.066c-3.079-3.08-8.071-3.08-11.149-0.001l-9.253,9.252c-3.08,3.079-3.08,8.07-0.001,11.149
			c1.54,1.54,3.557,2.309,5.575,2.309c2.017,0,4.035-0.769,5.574-2.309l9.253-9.252C428.746,62.136,428.746,57.145,425.667,54.066z"
			/>
	</g>
</g>
<g>
	<g>
		<path d="M221.556,230.012c-13.549-9.73-29.423-15.774-41.431-15.774c-12.649,0-17.625,6.612-19.465,10.553
			c-4.07,8.719-4.76,18.568-2.048,29.272c1.156,4.562,1.733,9.277,1.72,14.063c0.015,4.737-0.563,9.453-1.72,14.015
			c-2.712,10.704-2.022,20.552,2.048,29.272c1.839,3.941,6.813,10.552,19.464,10.552c0.001,0,0.001,0,0.001,0
			c12.007,0,27.882-6.044,41.431-15.773c9.184-6.596,24.592-20.29,24.592-37.898v-0.387
			C246.149,250.302,230.741,236.608,221.556,230.012z M230.382,268.296c0,7.606-6.738,16.986-18.023,25.091
			c-10.672,7.664-23.626,12.813-32.233,12.812c-2.733,0-4.765-0.571-5.178-1.455c-2.492-5.341-2.846-11.642-1.05-18.732
			c1.479-5.842,2.22-11.876,2.202-17.886c0.018-6.059-0.723-12.092-2.202-17.935c-1.796-7.089-1.442-13.391,1.05-18.731
			c0.413-0.884,2.445-1.455,5.178-1.455c17.038,0,50.256,20.461,50.256,37.904V268.296z"/>
	</g>
</g>
<g>
	<g>
		<path d="M322.351,217.4c-5.388-11.969-17.353-19.703-30.481-19.703c-4.742,0-9.351,0.993-13.702,2.952
			c-15.751,7.092-40.535,32.518-32.161,51.12c4.262,9.467,15.986,14.68,33.011,14.68c9.873,0,19.812-1.82,26.581-4.867
			c8.137-3.663,14.362-10.277,17.526-18.622C326.29,234.616,326.015,225.537,322.351,217.4z M299.128,247.205
			c-4.692,2.113-12.585,3.477-20.108,3.477c-10.642,0-17.429-2.71-18.635-5.386c-2.775-6.165,12.187-24.836,24.256-30.271
			c2.301-1.036,4.733-1.562,7.229-1.562c6.936,0,13.257,4.086,16.103,10.407C311.969,232.744,308,243.211,299.128,247.205z"/>
	</g>
</g>
<g>
	<g>
		<path d="M266.336,178.766c-1.574-7.788-6.085-14.497-12.704-18.891c-4.893-3.249-10.575-4.968-16.431-4.968
			c-10.003,0-19.273,4.97-24.801,13.295c-4.156,6.261-7.489,16.46-8.491,25.984c-1.359,12.931,1.771,22.628,8.815,27.304
			c2.987,1.983,6.525,2.989,10.517,2.989c14.374,0,32.239-13.613,38.72-23.373C266.355,194.487,267.908,186.554,266.336,178.766z
			 M248.825,192.385c-4.633,6.979-18.13,16.327-25.585,16.327c-0.81,0-1.447-0.127-1.795-0.358
			c-1.147-0.761-2.663-4.832-1.855-12.52c0.816-7.767,3.61-15.392,5.945-18.911c2.598-3.912,6.959-6.249,11.666-6.249
			c2.742,0,5.409,0.808,7.71,2.336c3.11,2.064,5.232,5.218,5.97,8.877C251.62,185.547,250.89,189.275,248.825,192.385z"/>
	</g>
</g>
<g>
	<g>
		<path d="M305.6,274.62c-6.769-3.048-16.708-4.867-26.581-4.867c-17.025,0-28.75,5.214-33.011,14.681
			c-8.374,18.601,16.408,44.028,32.161,51.12c4.351,1.958,8.961,2.951,13.701,2.951c13.129,0,25.094-7.733,30.482-19.702
			C329.913,302.003,322.399,282.183,305.6,274.62z M307.974,312.33c-2.846,6.323-9.168,10.407-16.104,10.407
			c-2.494,0-4.926-0.526-7.228-1.561c-12.07-5.434-27.032-24.106-24.257-30.271c1.205-2.676,7.993-5.386,18.635-5.386
			c7.523,0,15.416,1.365,20.108,3.477C308,292.992,311.969,303.459,307.974,312.33z"/>
	</g>
</g>
<g>
	<g>
		<path d="M261.96,335.095c-6.48-9.759-24.345-23.372-38.721-23.372c-3.99,0-7.527,1.006-10.516,2.989
			c-7.044,4.677-10.174,14.373-8.815,27.304c1.002,9.524,4.335,19.724,8.491,25.984c5.527,8.324,14.798,13.294,24.801,13.294
			c5.855,0,11.538-1.718,16.431-4.967c6.619-4.395,11.13-11.104,12.704-18.892C267.908,349.648,266.355,341.714,261.96,335.095z
			 M250.881,354.316c-0.739,3.659-2.86,6.812-5.97,8.878c-2.3,1.527-4.967,2.335-7.71,2.335c-4.707,0-9.067-2.336-11.666-6.248
			c-2.337-3.519-5.13-11.145-5.945-18.912c-0.808-7.688,0.708-11.759,1.855-12.52c0.347-0.231,0.985-0.358,1.794-0.358
			c7.455,0,20.952,9.35,25.586,16.327C250.89,346.927,251.62,350.656,250.881,354.316z"/>
	</g>
</g>
<g>
	<g>
		<path d="M504.478,58.193L463.01,16.724c-0.001,0-0.001-0.001-0.001-0.001s0-0.001-0.001-0.001l-9.203-9.203
			C448.956,2.671,442.508,0,435.651,0c-6.859,0-13.306,2.671-18.156,7.52l-55.132,55.133c-33.976-24.024-81.427-20.86-111.826,9.538
			L63.814,258.911c-3.079,3.079-3.079,8.071,0,11.149c3.08,3.079,8.071,3.079,11.149,0L261.685,83.339
			c25.853-25.85,66.763-27.656,94.736-5.451c0.251,0.353,0.528,0.694,0.844,1.01l75.834,75.835c0.321,0.321,0.665,0.599,1.024,0.854
			c9.99,12.559,15.429,28.002,15.429,44.29c0,19.052-7.42,36.964-20.892,50.436L187.735,491.236
			c-3.221,3.222-7.506,4.996-12.063,4.996s-8.84-1.774-12.063-4.996L20.762,348.389c-6.652-6.652-6.652-17.475,0-24.126
			l35.931-35.931c3.079-3.079,3.079-8.071,0-11.148c-3.08-3.079-8.071-3.079-11.149,0l-35.931,35.93
			c-12.799,12.799-12.799,33.624,0,46.423l142.848,142.847c6.2,6.201,14.444,9.615,23.211,9.615c8.769,0,17.013-3.415,23.212-9.615
			l240.922-240.924c16.449-16.449,25.509-38.321,25.509-61.585c0-18.261-5.605-35.652-15.963-50.25l55.124-55.124
			C514.488,84.493,514.488,68.204,504.478,58.193z M493.329,83.355l-54.228,54.229l-64.686-64.686l54.228-54.229
			c1.872-1.872,4.36-2.902,7.008-2.902c2.647,0,5.135,1.031,7.006,2.902l3.629,3.628L432.78,35.802
			c-3.079,3.079-3.079,8.071,0,11.148c1.54,1.539,3.558,2.309,5.575,2.309c2.017,0,4.035-0.769,5.575-2.309l13.503-13.503
			l35.894,35.895C497.192,73.206,497.192,79.491,493.329,83.355z"/>
	</g>
</g>
<g>
</g>
<g>
</g>
<g>
</g>
<g>
</g>
<g>
</g>
<g>
</g>
<g>
</g>
<g>
</g>
<g>
</g>
<g>
</g>
<g>
</g>
<g>
</g>
<g>
</g>
<g>
</g>
<g>
</g>
</svg>
